<?xml version="1.0" standalone="no"?>
<!DOCTYPE svg PUBLIC "-//W3C//DTD SVG 20010904//EN"
 "http://www.w3.org/TR/2001/REC-SVG-20010904/DTD/svg10.dtd">
<svg version="1.0" xmlns="http://www.w3.org/2000/svg"
 width="300.000000pt" height="270.000000pt" viewBox="0 0 300.000000 270.000000"
 preserveAspectRatio="xMidYMid meet">
<metadata>
Created by potrace 1.15, written by Peter Selinger 2001-2017
</metadata>
<g transform="translate(0.000000,270.000000) scale(0.100000,-0.100000)"
fill="#000000" stroke="none">
<path d="M2770 2689 c-19 -5 -69 -15 -110 -24 -167 -35 -301 -135 -378 -283
-77 -147 -112 -313 -137 -637 -32 -428 -48 -556 -80 -671 l-15 -51 -77 13
c-326 53 -832 4 -1194 -116 -209 -69 -319 -140 -319 -205 0 -62 10 -62 232 -6
275 69 359 86 527 111 144 21 383 29 467 15 170 -27 321 -90 413 -172 30 -26
74 -74 98 -106 44 -61 56 -91 26 -65 -49 41 -157 87 -283 122 -202 55 -597 68
-824 27 -146 -26 -240 -53 -326 -95 l-65 -31 65 -6 c36 -3 84 -14 108 -24 38
-16 51 -16 145 -4 207 27 531 14 749 -31 86 -17 88 -17 105 3 29 33 94 57 153
57 109 0 244 -92 295 -201 l23 -50 16 23 c54 76 80 292 53 434 -23 124 -67
201 -140 249 -13 9 -13 19 -1 85 7 42 20 250 29 468 8 216 20 425 25 465 26
182 84 328 162 406 81 82 224 126 271 84 97 -88 217 -31 217 102 0 54 -22 98
-57 114 -27 13 -121 12 -173 0z"/>
<path d="M465 2259 c-239 -32 -387 -107 -441 -224 -81 -173 33 -434 327 -750
115 -123 313 -308 317 -296 2 5 -26 60 -62 122 l-66 113 37 24 c58 35 221 112
253 118 31 7 37 -2 160 -224 34 -62 64 -111 67 -109 6 7 -21 107 -68 247 -22
68 -36 126 -32 130 4 4 49 17 98 29 50 13 97 25 107 27 16 5 48 -66 93 -206
10 -30 21 -59 26 -65 13 -13 10 84 -5 190 -8 50 -11 93 -7 97 7 8 249 34 255
27 3 -2 14 -47 24 -99 l20 -95 1 97 c1 97 1 98 27 104 15 4 80 4 145 1 66 -3
119 -2 119 3 0 16 -180 78 -270 94 l-35 6 -18 91 c-10 51 -15 95 -11 98 3 3
110 8 237 11 l232 5 -115 18 c-63 10 -175 24 -249 30 l-133 12 -40 113 c-22
63 -37 116 -34 120 7 6 587 -15 651 -24 26 -4 36 -3 30 4 -20 19 -533 106
-846 143 -197 23 -676 34 -794 18z m846 -254 c37 -66 67 -120 66 -121 -1 -1
-59 -4 -129 -8 l-128 -6 -24 47 c-14 27 -47 82 -75 123 -34 52 -46 77 -38 82
7 5 68 7 136 6 l124 -3 68 -120z m-400 -65 l60 -85 -78 -11 c-43 -6 -94 -14
-114 -18 -32 -6 -36 -3 -53 26 -11 18 -52 79 -92 135 l-73 102 34 7 c18 3 66
9 107 12 l73 7 38 -45 c21 -25 65 -83 98 -130z m-426 -80 c37 -39 65 -73 63
-75 -12 -12 -252 -75 -258 -68 -28 32 -41 174 -19 216 6 12 23 34 37 49 l25
28 42 -39 c23 -22 73 -71 110 -111z m968 -142 l34 -83 -131 -6 c-72 -3 -131
-5 -132 -5 0 1 -12 33 -26 73 l-26 71 86 12 c48 6 92 13 97 15 6 2 22 4 37 4
24 1 29 -7 61 -81z m-375 -46 c19 -35 32 -65 30 -66 -6 -5 -221 -57 -222 -54
-14 22 -67 140 -64 143 7 7 184 44 203 42 14 -1 31 -22 53 -65z m-365 -87 c26
-35 47 -69 47 -74 0 -5 -12 -12 -27 -16 -16 -3 -81 -29 -145 -56 -65 -27 -122
-50 -128 -51 -11 -3 -100 146 -100 168 0 6 26 19 58 28 31 9 93 27 137 41 44
13 87 24 95 24 8 0 36 -29 63 -64z"/>
<path d="M722 481 c-19 -5 -47 -21 -63 -37 -115 -110 -9 -346 181 -405 238
-74 340 180 145 360 -77 71 -179 103 -263 82z m212 -145 c96 -73 84 -216 -19
-216 -81 0 -148 68 -149 152 -1 43 3 53 28 75 37 31 90 27 140 -11z"/>
<path d="M1975 476 c-111 -41 -133 -177 -50 -303 103 -155 311 -197 398 -81
33 45 35 134 4 201 -62 136 -234 226 -352 183z m182 -117 c127 -48 144 -239
21 -239 -95 0 -171 96 -147 185 15 54 67 77 126 54z"/>
</g>
</svg>
